# xmcd
#
# Track frame offsets:
#	150
#	11939
#	25537
#	37329
#	46814
#	58359
#	75171
#	87744
#	96180
#	106344
#
# Disc length: 1546 seconds
#
# Revision: 1
# Processed by: cddbd v1.5.2PL0 Copyright (c) Steve Scherf et al.
# Submitted via: audiograbber 1.83.01
#
DISCID=7c06080a
DTITLE=Willie Nelson - Best of Hits
DYEAR=2008
DGENRE=Country
TTITLE0=Is there something on your mind
TTITLE1=The last letter
TTITLE2=Night life
TTITLE3=Building heartaches
TTITLE4=Some other time
TTITLE5=I let my mind wander
TTITLE6=Any old arms won't do
TTITLE7=Slow down old world
TTITLE8=Healing hands of time
TTITLE9=Let's pretend
EXTD=
EXTT0=
EXTT1=
EXTT2=
EXTT3=
EXTT4=
EXTT5=
EXTT6=
EXTT7=
EXTT8=
EXTT9=
PLAYORDER=
